<svg width="512" height="512" viewBox="0 0 512 512" fill="none" xmlns="http://www.w3.org/2000/svg">
<rect width="512" height="512" rx="256" fill="#45556C"/>
<path d="M99.7275 178.12C99.7275 148.146 112.965 123.378 139.439 103.816C165.913 83.9387 200.897 74 244.39 74C267.398 74 288.041 76.3664 306.321 81.0991C324.601 85.5163 339.099 91.1956 349.814 98.1369C360.53 105.078 369.513 113.124 376.761 122.274C388.738 138.05 394.568 155.718 394.253 175.28C394.253 194.527 386.689 211.722 371.561 226.867C356.433 242.012 338.153 249.9 316.722 250.531C343.511 252.424 366.676 261.258 386.217 277.034C406.072 292.81 416 312.687 416 336.666C416 368.218 403.866 392.828 379.598 410.497C355.33 428.166 325.704 437 290.72 437C256.052 437 232.414 432.425 219.807 423.275L234.462 383.52C248.33 390.777 264.404 394.405 282.683 394.405C301.278 394.405 316.407 389.042 328.068 378.314C339.729 367.271 345.56 352.758 345.56 334.773C345.56 316.789 337.523 301.644 321.449 289.339C305.691 277.034 284.102 270.881 256.682 270.881L260.937 235.859C279.847 235.859 295.763 231.442 308.685 222.608C321.922 213.458 328.698 199.89 329.013 181.906C329.644 163.922 321.607 148.777 304.903 136.472C286.938 123.536 262.355 117.068 231.153 117.068C210.667 117.068 190.654 122.432 171.113 133.159C151.573 143.571 141.803 157.611 141.803 175.28C141.803 183.799 145.27 191.056 152.203 197.051C159.137 202.73 168.277 206.201 179.623 207.463L174.423 242.485C150.47 241.538 132.032 234.755 119.11 222.134C106.189 209.514 99.7275 194.842 99.7275 178.12ZM234.935 343.292C229.892 377.052 220.122 401.031 205.624 415.229C191.127 429.112 174.108 436.053 154.567 436.053C135.027 436.053 120.214 431.005 110.128 420.909C100.043 410.812 95 397.876 95 382.1C95 344.87 123.208 313.16 179.623 286.973C181.199 273.721 183.405 255.894 186.242 233.493C189.393 210.776 191.757 192.476 193.333 178.593C195.224 164.711 196.485 155.561 197.115 151.143C210.037 142.94 225.007 138.838 242.027 138.838C249.906 138.838 257.47 139.627 264.719 141.205L234.935 343.292ZM129.984 375.948C129.984 387.306 135.342 392.986 146.057 392.986C150.47 392.986 155.04 390.146 159.767 384.467C164.81 378.472 168.277 369.164 170.168 356.544L174.423 327.201C144.797 343.923 129.984 360.172 129.984 375.948Z" fill="white"/>
</svg>
